<?xml version="1.0" encoding="UTF-8" standalone="no"?>
<!-- Creator: CorelDRAW -->
<svg
   xmlns:dc="http://purl.org/dc/elements/1.1/"
   xmlns:cc="http://web.resource.org/cc/"
   xmlns:rdf="http://www.w3.org/1999/02/22-rdf-syntax-ns#"
   xmlns:svg="http://www.w3.org/2000/svg"
   xmlns="http://www.w3.org/2000/svg"
   xmlns:sodipodi="http://sodipodi.sourceforge.net/DTD/sodipodi-0.dtd"
   xmlns:inkscape="http://www.inkscape.org/namespaces/inkscape"
   xml:space="preserve"
   width="500"
   height="150"
   style="shape-rendering:geometricPrecision; text-rendering:geometricPrecision; image-rendering:optimizeQuality; fill-rule:evenodd"
   viewBox="0 0 8267.72 11692.9"
   id="svg2"
   sodipodi:version="0.32"
   inkscape:version="0.44.1"
   sodipodi:docname="Decoline01.svg"
   sodipodi:docbase="C:\Documents and Settings\Brittany Boyer\My Documents\Pictures\Work\Wikimedia\Clean up\Crop"
   version="1.0"><metadata
   id="metadata24"><rdf:RDF><cc:Work
       rdf:about=""><dc:format>image/svg+xml</dc:format><dc:type
         rdf:resource="http://purl.org/dc/dcmitype/StillImage" /></cc:Work></rdf:RDF></metadata><sodipodi:namedview
   inkscape:window-height="964"
   inkscape:window-width="1280"
   inkscape:pageshadow="2"
   inkscape:pageopacity="0.0"
   guidetolerance="10.0"
   gridtolerance="10.0"
   objecttolerance="10.0"
   borderopacity="1.0"
   bordercolor="#666666"
   pagecolor="#ffffff"
   id="base"
   width="500px"
   height="150px"
   inkscape:zoom="0.3582421"
   inkscape:cx="660.88979"
   inkscape:cy="716.20831"
   inkscape:window-x="-4"
   inkscape:window-y="-4"
   inkscape:current-layer="svg2" />
 <defs
   id="defs4">
  <style
   type="text/css"
   id="style6">
   
    .fil0 {fill:#1F1A17}
   
  </style>
 </defs>
 
<g
   transform="matrix(7.01574,0,0,7.01574,-25797.01,-10282.12)"
   style="fill-rule:evenodd"
   id="Ebene_x0020_1">
  <g
   id="g9">
   <g
   id="g11">
    <path
   class="fil0"
   d="M 3788.65,2477.22 C 3787.5122,2477.0113 3664.327,2423.4011 3633.016,2413.3184 C 3350.264,2337.1373 2972.508,2471.905 2714.221,2511.3853 C 2648.0123,2521.5192 2579.902,2526.7081 2510.138,2531.5428 C 2470.1577,2534.3066 2429.6498,2537.1452 2386.307,2532.3145 C 2275.114,2519.9129 2142.665,2511.4326 2030.366,2469.3932 C 1951.7833,2439.9838 1870.11,2400.3971 1805.413,2344.4052 C 1770.7476,2314.4367 1768.8579,2304.7635 1773.3461,2290.4997 C 1784.6256,2254.6651 1844.2477,2270.2123 1867.5115,2297.5587 C 1900.043,2335.7831 1887.6414,2343.7713 1928.98,2379.7162 C 1955.98,2403.2398 1985.858,2420.3501 2063.976,2453.0154 C 2116.0902,2474.7871 2197.563,2475.6689 2248.362,2475.6611 C 2338.1297,2475.6414 2470.142,2461.9249 2549.531,2445.9446 C 2581.8617,2439.4367 2578.8105,2432.5942 3053.618,2356.9682 C 3212.138,2331.7477 3373.697,2302.4682 3546.401,2341.0312 C 3568.5427,2340.0942 3757.444,2419.1966 3780.499,2452.6372 C 3814.1092,2481.1018 3789.7746,2477.4325 3788.6486,2477.2199 L 3788.65,2477.22 z "
   id="path13"
   style="fill:#1f1a17" />
    <path
   class="fil0"
   d="M 3797.51,2479.56 C 3819.8131,2477.7726 3804.6675,2463.0561 3798.8801,2458.186 C 3701.4746,2365.6151 3674.9351,2235.473 3693.1991,2132.021 C 3745.7345,2022.97 3808.4471,1978.478 3929.9901,1945.241 C 4132.6551,1925.2489 4248.5451,1956.2843 4436.2621,2061.17 C 4611.4351,2189.906 4680.3881,2324.631 4614.5971,2452.016 C 4539.2821,2560.351 4344.0811,2534.5121 4164.0661,2427.5908 C 4157.5779,2423.7247 4146.5818,2421.4176 4146.5543,2426.0632 C 4146.4244,2435.4963 4149.3968,2447.9215 4157.1763,2452.7837 C 4191.3535,2474.1262 4256.3141,2530.5672 4352.6523,2563.6657 C 4472.1993,2604.7405 4582.9393,2602.8429 4671.3493,2535.4767 C 4728.6406,2468.5869 4751.6643,2409.5987 4718.9713,2311.8427 C 4675.6642,2208.0667 4588.4833,2111.3307 4482.6443,2029.5317 C 4347.0223,1953.5474 4278.4713,1913.8977 4134.3413,1885.0477 C 3942.7073,1859.9375 3799.2073,1862.9729 3675.1323,1975.0201 C 3592.1126,2068.9807 3559.8373,2122.7601 3690.6402,2384.7961 C 3714.1284,2427.3788 3775.2071,2481.367 3797.5102,2479.5599 L 3797.51,2479.56 z "
   id="path15"
   style="fill:#1f1a17" />
   </g>
   <g
   id="g17">
    <path
   class="fil0"
   d="M 4771.12,2174.44 C 4772.2499,2174.6605 4895.419,2228.2431 4926.73,2238.3691 C 5209.482,2314.5305 5587.254,2179.7667 5845.537,2140.2864 C 5911.7496,2130.1525 5979.856,2124.9439 6049.62,2120.1368 C 6089.6003,2117.3651 6130.1239,2114.5108 6173.451,2119.3533 C 6284.648,2131.7588 6417.069,2140.2391 6529.4,2182.2785 C 6607.9748,2211.6722 6689.648,2251.2746 6754.349,2307.2475 C 6789.0144,2337.2357 6790.9002,2346.9168 6786.4002,2361.1727 C 6775.1246,2396.9955 6715.5144,2381.4601 6692.2309,2354.094 C 6659.727,2315.8775 6672.1207,2307.9011 6630.7821,2271.9365 C 6603.7585,2248.4404 6573.9002,2231.3263 6495.7781,2198.6609 C 6443.6718,2176.8932 6362.1871,2176.0074 6311.3801,2176.0034 C 6221.636,2176.0231 6089.6161,2189.7436 6010.2111,2205.7475 C 5977.908,2212.2396 5980.9394,2219.09 5506.1481,2294.6924 C 5347.6281,2319.9365 5186.0571,2349.1885 5013.3721,2310.6333 C 4991.2028,2311.5821 4802.3051,2232.4719 4779.2621,2199.0353 C 4745.6519,2170.5707 4769.9865,2174.2361 4771.1204,2174.4408 L 4771.12,2174.44 z "
   id="path19"
   style="fill:#1f1a17" />
    <path
   class="fil0"
   d="M 4762.24,2172.11 C 4739.9565,2173.9171 4755.0983,2188.5943 4760.8857,2193.488 C 4858.2833,2286.051 4884.8307,2416.201 4866.5587,2519.657 C 4814.0233,2628.696 4751.2987,2673.188 4629.7637,2706.437 C 4427.0907,2726.437 4311.2047,2695.3898 4123.4917,2590.488 C 3948.3307,2461.764 3879.3617,2327.008 3945.1647,2199.622 C 4020.4836,2091.323 4215.6847,2117.1574 4395.6957,2224.0629 C 4402.1917,2227.9369 4413.1839,2230.2519 4413.2114,2225.6101 C 4413.3216,2216.1771 4410.3688,2203.74 4402.5854,2198.8857 C 4368.424,2177.555 4303.424,2121.1062 4207.1134,2088.0077 C 4087.5584,2046.9093 3976.8304,2048.8187 3888.4164,2116.1809 C 3831.1251,2183.0864 3808.0975,2242.0899 3840.7944,2339.8309 C 3884.1054,2443.5709 3971.2594,2540.3619 4077.1214,2622.1419 C 4212.7594,2698.1183 4281.2944,2737.7559 4425.4124,2766.6299 C 4617.0584,2791.7362 4760.5664,2788.7126 4884.6214,2676.6456 C 4967.6332,2582.685 4999.8934,2528.9056 4869.1135,2266.8776 C 4845.6489,2224.291 4784.5229,2170.3107 4762.2395,2172.1099 L 4762.24,2172.11 z "
   id="path21"
   style="fill:#1f1a17" />
   </g>
  </g>
 </g></svg>