<?xml version="1.0" encoding="UTF-8" standalone="no"?>
<!-- Generator: Adobe Illustrator 15.0.0, SVG Export Plug-In . SVG Version: 6.00 Build 0)  -->

<svg
   xmlns:dc="http://purl.org/dc/elements/1.1/"
   xmlns:cc="http://creativecommons.org/ns#"
   xmlns:rdf="http://www.w3.org/1999/02/22-rdf-syntax-ns#"
   xmlns:svg="http://www.w3.org/2000/svg"
   xmlns="http://www.w3.org/2000/svg"
   xmlns:sodipodi="http://sodipodi.sourceforge.net/DTD/sodipodi-0.dtd"
   xmlns:inkscape="http://www.inkscape.org/namespaces/inkscape"
   version="1.1"
   id="Layer_1"
   x="0px"
   y="0px"
   width="600"
   height="600"
   viewBox="0 0 599.99997 600"
   enable-background="new 0 0 595.28 841.89"
   xml:space="preserve"
   inkscape:version="0.48.2 r9819"
   sodipodi:docname="chart2.svg"><metadata
   id="metadata179"><rdf:RDF><cc:Work
       rdf:about=""><dc:format>image/svg+xml</dc:format><dc:type
         rdf:resource="http://purl.org/dc/dcmitype/StillImage" /><dc:title /><dc:creator><cc:Agent><dc:title>Arch. Emilie Rollandin</dc:title></cc:Agent></dc:creator><cc:license
         rdf:resource="http://creativecommons.org/licenses/by/3.0/" /></cc:Work><cc:License
       rdf:about="http://creativecommons.org/licenses/by/3.0/"><cc:permits
         rdf:resource="http://creativecommons.org/ns#Reproduction" /><cc:permits
         rdf:resource="http://creativecommons.org/ns#Distribution" /><cc:requires
         rdf:resource="http://creativecommons.org/ns#Notice" /><cc:requires
         rdf:resource="http://creativecommons.org/ns#Attribution" /><cc:permits
         rdf:resource="http://creativecommons.org/ns#DerivativeWorks" /></cc:License></rdf:RDF></metadata><defs
   id="defs177"><inkscape:perspective
     sodipodi:type="inkscape:persp3d"
     inkscape:vp_x="0 : 420.94501 : 1"
     inkscape:vp_y="0 : 1000 : 0"
     inkscape:vp_z="595.28003 : 420.94501 : 1"
     inkscape:persp3d-origin="297.64001 : 280.63 : 1"
     id="perspective181" /></defs><sodipodi:namedview
   pagecolor="#ffffff"
   bordercolor="#666666"
   borderopacity="1"
   objecttolerance="10"
   gridtolerance="10"
   guidetolerance="10"
   inkscape:pageopacity="0"
   inkscape:pageshadow="2"
   inkscape:window-width="1035"
   inkscape:window-height="726"
   id="namedview175"
   showgrid="false"
   inkscape:zoom="0.5606433"
   inkscape:cx="288.34773"
   inkscape:cy="272.54337"
   inkscape:window-x="129"
   inkscape:window-y="164"
   inkscape:window-maximized="0"
   inkscape:current-layer="Layer_1"
   fit-margin-top="0"
   fit-margin-left="0"
   fit-margin-right="0"
   fit-margin-bottom="0" />
<radialGradient
   id="SVGID_1_"
   cx="275.10159"
   cy="547.15527"
   r="226.5632"
   gradientUnits="userSpaceOnUse"
   gradientTransform="translate(-0.16135026,-121.46474)">
	<stop
   offset="0"
   style="stop-color:#FFFFFF"
   id="stop4" />
	<stop
   offset="0.24"
   style="stop-color:#FBEA26"
   id="stop6" />
	<stop
   offset="1"
   style="stop-color:#E6282B"
   id="stop8" />
</radialGradient>
<path
   d="m 284.41965,300.36826 c 4.099,-5.387 8.111,-10.807 12.228,-16.182 l -1.544,-27.889 c -2.07,0.111 -4.146,0.195 -6.312,0.352 -87.70899,4.506 -175.50599,9.07 -263.294001,13.563 l 0.813,14.654 c 85.534011,-4.441 171.060011,-8.836 256.520001,-13.275 l 1.589,28.777 z"
   id="path10"
   inkscape:connector-curvature="0"
   style="fill:url(#SVGID_1_)" />
<radialGradient
   id="SVGID_2_"
   cx="289.98489"
   cy="199.9395"
   r="334.39371"
   gradientUnits="userSpaceOnUse"
   gradientTransform="translate(-0.16135026,-121.46474)">
	<stop
   offset="0"
   style="stop-color:#FFFFFF"
   id="stop13" />
	<stop
   offset="0.0168"
   style="stop-color:#FFFCEA"
   id="stop15" />
	<stop
   offset="0.0446"
   style="stop-color:#FEF8C8"
   id="stop17" />
	<stop
   offset="0.0744"
   style="stop-color:#FDF4A7"
   id="stop19" />
	<stop
   offset="0.1058"
   style="stop-color:#FDF187"
   id="stop21" />
	<stop
   offset="0.1393"
   style="stop-color:#FCEE6A"
   id="stop23" />
	<stop
   offset="0.1756"
   style="stop-color:#FBEC50"
   id="stop25" />
	<stop
   offset="0.2162"
   style="stop-color:#FBEB3B"
   id="stop27" />
	<stop
   offset="0.2643"
   style="stop-color:#FBEA2C"
   id="stop29" />
	<stop
   offset="0.3398"
   style="stop-color:#FBEA26"
   id="stop31" />
	<stop
   offset="1"
   style="stop-color:#E6282B"
   id="stop33" />
</radialGradient>
<path
   d="m 295.10365,256.29826 c 64.271,-41.281 128.028,-83.498 191.92,-125.25 3.038,-1.926 6.014,-3.865 8.971,-5.863 -48.49,-36.176006 -116.979,-55.811006 -187.498,-56.457006 -38.369,-0.353 -77.34899,4.93 -114.03699,16.22 C 90.359651,117.09426 21.890649,192.32526 25.497649,270.21226 c 87.788011,-4.492 175.585011,-9.057 263.294001,-13.563 2.165,-0.156 4.241,-0.24 6.312,-0.351 z"
   id="path35"
   inkscape:connector-curvature="0"
   style="fill:url(#SVGID_2_)" />
<radialGradient
   id="SVGID_3_"
   cx="337.168"
   cy="110.1719"
   r="308.1485"
   gradientUnits="userSpaceOnUse"
   gradientTransform="translate(-0.16135026,-121.46474)">
	<stop
   offset="0"
   style="stop-color:#FFFFFF"
   id="stop38" />
	<stop
   offset="0.24"
   style="stop-color:#FBEA26"
   id="stop40" />
	<stop
   offset="1"
   style="stop-color:#E6282B"
   id="stop42" />
</radialGradient>
<path
   d="m 295.10365,256.29826 1.544,27.889 c 1.683,-2.193 3.305,-4.408 4.988,-6.602 1.487,1.117 3.051,2.285 4.533,3.455 3.11,2.318 6.212,4.648 9.324,6.967 l -1.313,-23.742 4.62,-3.076 c 59.399,-38.768 118.866,-77.543 178.282,-116.362 l -1.089,-19.642 c -2.957,1.998 -5.933,3.938 -8.971,5.863 -63.89,41.752 -127.648,83.968 -191.918,125.25 z"
   id="path44"
   inkscape:connector-curvature="0"
   style="fill:url(#SVGID_3_)" />
<radialGradient
   id="SVGID_4_"
   cx="117.3745"
   cy="221.7939"
   r="170.2914"
   gradientUnits="userSpaceOnUse"
   gradientTransform="translate(-0.16135026,-121.46474)">
	<stop
   offset="0"
   style="stop-color:#F8CBDF"
   id="stop47" />
	<stop
   offset="0.525"
   style="stop-color:#E7297B"
   id="stop49" />
	<stop
   offset="1"
   style="stop-color:#9E2061"
   id="stop51" />
</radialGradient>
<path
   d="m 282.83065,271.59126 c -2.042,0.672 -4.235,1.338 -6.275,1.965 -81.36899,25.095 -162.73099,50.131 -244.109001,75.23 l 0.807,14.49 c 78.397011,-24.232 156.556011,-48.855 235.258001,-72.494 l 1.58,28.549 c 4.773,-6.322 9.533,-12.656 14.329,-18.963 l -1.59,-28.777 z"
   id="path53"
   inkscape:connector-curvature="0"
   style="fill:url(#SVGID_4_)" />
<radialGradient
   id="SVGID_5_"
   cx="255.4653"
   cy="382.91159"
   r="290.6235"
   gradientUnits="userSpaceOnUse"
   gradientTransform="translate(-0.16135026,-121.46474)">
	<stop
   offset="0"
   style="stop-color:#F8CBDF"
   id="stop56" />
	<stop
   offset="0.525"
   style="stop-color:#E7297B"
   id="stop58" />
	<stop
   offset="1"
   style="stop-color:#9E2061"
   id="stop60" />
</radialGradient>
<path
   d="m 15.111649,302.21026 c 0.532,2.982 1.382,5.916 2.113,8.873 0.584,2.357 1.002,4.74 1.717,7.078 0.938,3.043 2.197,6.021 3.35,9.025 0.833,2.174 1.496,4.395 2.442,6.543 2.256,5.105 4.815,10.133 7.712,15.057 81.378011,-25.1 162.740011,-50.135 244.109001,-75.23 2.04,-0.627 4.233,-1.293 6.275,-1.965 -85.45999,4.439 -170.98499,8.834 -256.520001,13.275 -2.263,0.117 -4.519,0.234 -6.774,0.352 -2.087,0.098 -4.153,0.189 -6.312,0.287 0.046,0.908 0.156,1.816 0.248,2.736 0.219,2.318 0.535,4.631 0.816,6.949 0.286,2.336 0.417,4.694 0.824,7.02 z"
   id="path62"
   inkscape:connector-curvature="0"
   style="fill:url(#SVGID_5_)" />
<radialGradient
   id="SVGID_6_"
   cx="-23.0229"
   cy="397.8652"
   r="216.7496"
   gradientUnits="userSpaceOnUse"
   gradientTransform="translate(-0.16135026,-121.46474)">
	<stop
   offset="0"
   style="stop-color:#F8CBDF"
   id="stop65" />
	<stop
   offset="0.525"
   style="stop-color:#E7297B"
   id="stop67" />
	<stop
   offset="1"
   style="stop-color:#9E2061"
   id="stop69" />
</radialGradient>
<path
   d="m 33.252649,363.27626 -0.807,-14.49 c -2.896,-4.924 -5.456,-9.951 -7.712,-15.057 -0.946,-2.148 -1.609,-4.369 -2.442,-6.543 -1.152,-3.004 -2.412,-5.982 -3.35,-9.025 -0.715,-2.338 -1.133,-4.721 -1.717,-7.078 -0.731,-2.957 -1.581,-5.891 -2.113,-8.873 -0.407,-2.326 -0.538,-4.684 -0.822,-7.02 -0.281,-2.318 -0.598,-4.631 -0.816,-6.949 -0.049,-0.561 -0.163,-1.109 -0.195,-1.664 l 3.669,66.121 c 0.278,5.027 0.904,10.043 1.764,15.025 2.321,-0.719 4.646,-1.43 6.974,-2.104 2.522,-0.782 5.043,-1.565 7.567,-2.343 z"
   id="path71"
   inkscape:connector-curvature="0"
   style="fill:url(#SVGID_6_)" />
<path
   d="m 582.93965,249.33726 c 0.008,0.209 0,0.404 0.008,0.613 0.009,0.137 0.045,0.262 0.045,0.398 -0.017,-0.332 -0.037,-0.679 -0.053,-1.011 z"
   id="path73"
   inkscape:connector-curvature="0"
   style="fill:#c3292e" />
<radialGradient
   id="SVGID_7_"
   cx="591.59857"
   cy="635.19342"
   r="313.33331"
   gradientUnits="userSpaceOnUse"
   gradientTransform="translate(-0.16135026,-121.46474)">
	<stop
   offset="0"
   style="stop-color:#FCE1E2"
   id="stop76" />
	<stop
   offset="0.0519"
   style="stop-color:#FBDCDB"
   id="stop78" />
	<stop
   offset="0.1286"
   style="stop-color:#F9CCC6"
   id="stop80" />
	<stop
   offset="0.2206"
   style="stop-color:#F6B1A4"
   id="stop82" />
	<stop
   offset="0.3245"
   style="stop-color:#F18877"
   id="stop84" />
	<stop
   offset="0.4368"
   style="stop-color:#EA4F43"
   id="stop86" />
	<stop
   offset="0.5019"
   style="stop-color:#E52529"
   id="stop88" />
	<stop
   offset="1"
   style="stop-color:#8B1817"
   id="stop90" />
</radialGradient>
<path
   d="m 583.00065,250.40726 c 0.011,0.354 -0.025,0.705 -0.02,1.053 0.175,4.309 0.11901,8.611 -0.123,12.928 -0.025,0.563 -0.02,1.117 -0.062,1.672 -0.02,0.301 -0.036,0.594 -0.056,0.881 -0.017,0.242 -0.017,0.49 -0.036,0.732 -0.37,4.498 -1.006,8.998 -1.825,13.484 -0.072,0.385 -0.117,0.77 -0.189,1.156 -0.206,1.064 -0.538,2.121 -0.774,3.191 -0.493,2.293 -0.906,4.598 -1.519,6.877 -0.287,1.084 -0.728,2.143 -1.04,3.219 -0.281,0.947 -0.451,1.906 -0.758,2.854 -0.376,1.195 -0.908,2.363 -1.313,3.553 -1.015,2.945 -2.14,5.877 -3.353,8.789 -0.504,1.195 -0.863,2.41 -1.391,3.598 -0.398,0.883 -0.919,1.744 -1.334,2.633 -0.477,1.018 -0.834,2.049 -1.338,3.068 -0.502,1.012 -1.106,2.012 -1.636,3.016 -0.794,1.568 -1.645,3.102 -2.511,4.65 -0.349,0.619 -0.646,1.246 -1.006,1.867 -0.045,0.084 -0.092,0.164 -0.134,0.248 -0.056,0.086 -0.106,0.184 -0.162,0.275 -0.053,0.09 -0.119,0.168 -0.161,0.26 -2.608,4.428 -5.546,8.777 -8.642,13.094 -0.412,0.561 -0.735,1.154 -1.159,1.723 -0.34,0.471 -0.764,0.922 -1.114,1.385 -3.058,4.061 -6.248,8.09 -9.745,12.027 -0.251,0.295 -0.532,0.563 -0.791,0.85 -0.126,0.145 -0.234,0.293 -0.368,0.438 -0.287,0.32 -0.63,0.613 -0.917,0.928 -4.10199,4.479 -8.42399,8.881 -13.108,13.164 -9.711,8.842 -20.442,17.166 -32.13,24.846 l 3.66501,66.135 c 11.67899,-7.686 22.41499,-16.006 32.13499,-24.859 4.707,-4.316 9.068,-8.75 13.195,-13.262 0.406,-0.438 0.836,-0.869 1.231,-1.313 3.81401,-4.252 7.31,-8.588 10.608,-12.982 0.738,-0.998 1.466,-1.998 2.185,-2.99 3.20801,-4.48 6.259,-9.004 8.945,-13.602 0.036,-0.064 0.072,-0.131 0.108,-0.189 2.491,-4.291 4.629,-8.633 6.663,-13 0.908,-1.934 1.744,-3.887 2.553,-5.838 1.284,-3.082 2.46301,-6.184 3.522,-9.307 0.674,-1.984 1.34,-3.969 1.923,-5.955 1.089,-3.709 2.025,-7.418 2.795,-11.139 0.226,-1.092 0.523,-2.182 0.722,-3.279 0.908,-4.93 1.538,-9.879 1.889,-14.822 0.054,-0.672 0.062,-1.346 0.098,-2.012 0.27899,-5.008 0.35899,-10.01 0.081,-14.984 -1.202,-21.682 -2.408,-43.375 -3.60301,-65.061 z"
   id="path92"
   inkscape:connector-curvature="0"
   style="fill:url(#SVGID_7_)" />
<radialGradient
   id="SVGID_8_"
   cx="268.4126"
   cy="378.87299"
   r="412.5246"
   gradientUnits="userSpaceOnUse"
   gradientTransform="translate(-0.16135026,-121.46474)">
	<stop
   offset="0"
   style="stop-color:#FCE1E2"
   id="stop95" />
	<stop
   offset="0.4942"
   style="stop-color:#E52529"
   id="stop97" />
	<stop
   offset="1"
   style="stop-color:#8B1817"
   id="stop99" />
</radialGradient>
<path
   d="m 314.18065,264.26426 c 2.405,1.867 4.916,3.682 7.332,5.543 14.314,10.689 28.618,21.373 43.009,32.063 37.059,27.68 74.099,55.418 111.166,83.098 6.256,4.611 12.432,9.221 18.601,13.896 11.688,-7.68 22.419,-16.004 32.13,-24.846 4.685,-4.283 9.007,-8.686 13.108,-13.164 0.287,-0.314 0.63,-0.607 0.917,-0.928 3.929,-4.35 7.516,-8.809 10.904,-13.314 0.351,-0.463 0.774,-0.914 1.114,-1.385 3.589,-4.865 6.844,-9.807 9.801,-14.816 0.042,-0.092 0.108,-0.17 0.161,-0.26 0.466,-0.791 0.861,-1.588 1.302,-2.391 0.866,-1.549 1.717,-3.082 2.511,-4.65 1.031,-2.023 2.021,-4.055 2.974,-6.084 0.415,-0.889 0.936,-1.75 1.334,-2.633 1.82,-4.1 3.316,-8.246 4.743,-12.387 0.404,-1.189 0.937,-2.357 1.313,-3.553 1.357,-4.297 2.383,-8.625 3.316,-12.949 0.236,-1.07 0.568,-2.127 0.774,-3.191 0.973,-5.113 1.655,-10.24 2.051,-15.373 0.02,-0.287 0.036,-0.58 0.056,-0.881 0.34,-4.865 0.374,-9.736 0.185,-14.6 -0.006,-0.348 0.03,-0.699 0.02,-1.053 -0.009,-0.025 -0.009,-0.045 -0.009,-0.059 0,-0.137 -0.036,-0.262 -0.045,-0.398 -2.176,-42.881 -24.948,-84.679 -67.963,-116.799 -5.963,3.904 -11.932,7.783 -17.901,11.675 -59.416,38.819 -118.883,77.595 -178.282,116.362 l -4.622,3.077 z"
   id="path101"
   inkscape:connector-curvature="0"
   style="fill:url(#SVGID_8_)" />
<radialGradient
   id="SVGID_9_"
   cx="252.8101"
   cy="784.52441"
   r="426.6604"
   gradientUnits="userSpaceOnUse"
   gradientTransform="translate(-0.16135026,-121.46474)">
	<stop
   offset="0"
   style="stop-color:#FCE1E2"
   id="stop104" />
	<stop
   offset="0.67"
   style="stop-color:#E52529"
   id="stop106" />
	<stop
   offset="1"
   style="stop-color:#8B1817"
   id="stop108" />
</radialGradient>
<path
   d="m 475.68765,384.96826 c -37.067,-27.68 -74.107,-55.418 -111.166,-83.098 -14.391,-10.689 -28.694,-21.373 -43.009,-32.063 -2.416,-1.861 -4.927,-3.676 -7.332,-5.543 l 1.313,23.742 c 55.448,41.354 110.896,82.766 166.253,124.186 l 2.354,42.457 c 4.629,3.434 9.26,6.869 13.853,10.35 l -3.665,-66.135 c -6.17,-4.676 -12.346,-9.285 -18.601,-13.896 z"
   id="path110"
   inkscape:connector-curvature="0"
   style="fill:url(#SVGID_9_)" />
<path
   d="m 468.43165,420.34126 c 4.539,-2.605 8.989,-5.328 13.314,-8.148 -6.178,4.035 -12.641,7.783 -19.25,11.367 1.979,-1.077 3.993,-2.102 5.936,-3.219 z"
   id="path112"
   inkscape:connector-curvature="0"
   style="fill:#858686" />
<path
   d="m 450.64765,429.64526 c 2.906,-1.41 5.793,-2.846 8.624,-4.342 -2.851,1.502 -5.854,2.809 -8.774,4.225 0.052,0.039 0.105,0.084 0.15,0.117 z"
   id="path114"
   inkscape:connector-curvature="0"
   style="fill:#858686" />
<radialGradient
   id="SVGID_10_"
   cx="250.8633"
   cy="407.45071"
   r="236.54041"
   gradientUnits="userSpaceOnUse"
   gradientTransform="translate(-0.16135026,-121.46474)">
	<stop
   offset="0"
   style="stop-color:#E9F1D9"
   id="stop117" />
	<stop
   offset="0.525"
   style="stop-color:#7EBA28"
   id="stop119" />
	<stop
   offset="1"
   style="stop-color:#1E9438"
   id="stop121" />
</radialGradient>
<path
   d="m 141.33466,460.01126 c 41.354,-54.996 82.609,-109.996 123.94599,-164.932 1.025,-1.438 2.132,-2.854 3.229,-4.297 -78.70199,23.639 -156.85999,48.262 -235.258001,72.494 -2.524,0.777 -5.045,1.561 -7.568,2.344 -2.328,0.674 -4.652,1.385 -6.974,2.104 -0.216,0.072 -0.435,0.123 -0.65,0.195 23.43,39.957 67.843002,73.062 123.275011,92.092 z"
   id="path123"
   inkscape:connector-curvature="0"
   style="fill:url(#SVGID_10_)" />
<radialGradient
   id="SVGID_11_"
   cx="415.0322"
   cy="702.04303"
   r="341.46179"
   gradientUnits="userSpaceOnUse"
   gradientTransform="translate(-0.16135026,-121.46474)">
	<stop
   offset="0"
   style="stop-color:#E9F1D9"
   id="stop126" />
	<stop
   offset="0.525"
   style="stop-color:#7EBA28"
   id="stop128" />
	<stop
   offset="1"
   style="stop-color:#1E9438"
   id="stop130" />
</radialGradient>
<path
   d="m 178.61666,441.31526 c 30.521,-40.662 60.838,-81.375 91.47399,-121.984 l -1.58,-28.549 c -1.098,1.443 -2.204,2.859 -3.229,4.297 -41.33699,54.936 -82.59299,109.936 -123.94599,164.932 l 3.667,66.121 c 10.52,-13.994 21.02,-27.961 31.525,-41.949 l -2.063,-37.311 c 1.383,-1.887 2.768,-3.723 4.152,-5.557 z"
   id="path132"
   inkscape:connector-curvature="0"
   style="fill:url(#SVGID_11_)" />
<radialGradient
   id="SVGID_12_"
   cx="143.459"
   cy="447.3447"
   r="248.3952"
   gradientUnits="userSpaceOnUse"
   gradientTransform="translate(-0.16135026,-121.46474)">
	<stop
   offset="0"
   style="stop-color:#E9F1D9"
   id="stop135" />
	<stop
   offset="0.0028"
   style="stop-color:#E8F0D7"
   id="stop137" />
	<stop
   offset="0.0687"
   style="stop-color:#D0E2AC"
   id="stop139" />
	<stop
   offset="0.1355"
   style="stop-color:#BAD584"
   id="stop141" />
	<stop
   offset="0.202"
   style="stop-color:#A6CA62"
   id="stop143" />
	<stop
   offset="0.2682"
   style="stop-color:#96C348"
   id="stop145" />
	<stop
   offset="0.334"
   style="stop-color:#89BE37"
   id="stop147" />
	<stop
   offset="0.3992"
   style="stop-color:#80BB2C"
   id="stop149" />
	<stop
   offset="0.4633"
   style="stop-color:#7EBA28"
   id="stop151" />
	<stop
   offset="1"
   style="stop-color:#1E9438"
   id="stop153" />
</radialGradient>
<path
   d="m 18.060649,367.91926 3.66,66.135 c 23.439,39.949 67.849002,73.049 123.281011,92.078 l -3.667,-66.121 c -55.432009,-19.03 -99.845011,-52.135 -123.274011,-92.092 z"
   id="path155"
   inkscape:connector-curvature="0"
   style="fill:url(#SVGID_12_)" />
<radialGradient
   id="SVGID_13_"
   cx="352.125"
   cy="846.25293"
   r="293.8251"
   gradientUnits="userSpaceOnUse"
   gradientTransform="translate(-0.16135026,-121.46474)">
	<stop
   offset="0"
   style="stop-color:#C9E8F7"
   id="stop158" />
	<stop
   offset="0.5019"
   style="stop-color:#2AABE3"
   id="stop160" />
	<stop
   offset="1"
   style="stop-color:#30358C"
   id="stop162" />
</radialGradient>
<path
   d="m 468.43165,420.34126 c -1.942,1.117 -3.957,2.143 -5.936,3.219 -1.076,0.588 -2.138,1.176 -3.225,1.744 -2.831,1.496 -5.718,2.932 -8.624,4.342 -3.564,1.738 -7.162,3.416 -10.826,5.029 -1.192,0.527 -2.386,1.031 -3.592,1.533 -6.259,2.672 -12.596,5.219 -19.097,7.516 -0.502,0.184 -1.034,0.328 -1.536,0.496 -1.546,0.543 -3.138,1 -4.692,1.521 -5.849,1.939 -11.76,3.756 -17.754,5.408 -2.421,0.678 -4.849,1.299 -7.284,1.92 -2.31,0.594 -4.575,1.266 -6.902,1.814 -3.84,0.895 -7.738,1.658 -11.62,2.441 -1.293,0.262 -2.561,0.563 -3.854,0.811 -6.365,1.215 -12.771,2.313 -19.22,3.213 -1.26,0.176 -2.527,0.287 -3.787,0.451 -1.591,0.201 -3.18,0.371 -4.776,0.561 -7.281,0.855 -14.588,1.549 -21.925,1.998 -0.669,0.047 -1.335,0.117 -1.998,0.15 -0.376,0.02 -0.741,0.064 -1.109,0.086 -8.273,0.438 -16.58,0.625 -24.859,0.547 -2.976,-0.02 -5.943,-0.084 -8.917,-0.182 -0.78,-0.027 -1.552,-0.098 -2.332,-0.125 -3.979,-0.156 -7.953,-0.385 -11.91899,-0.658 -1.502,-0.105 -3.001,-0.17 -4.5,-0.289 -5.354,-0.438 -10.689,-0.979 -15.998,-1.645 -0.248,-0.025 -0.499,-0.033 -0.744,-0.072 -0.725,-0.084 -1.43,-0.24 -2.148,-0.332 -5.303,-0.705 -10.564,-1.535 -15.795,-2.463 -1.496,-0.268 -2.988,-0.535 -4.47,-0.816 -6.061,-1.162 -12.077,-2.428 -18.018,-3.904 -0.003,0 -0.012,0 -0.02,0 -0.627,-0.15 -1.232,-0.34 -1.859,-0.502 -0.448,-0.119 -0.886,-0.242 -1.329,-0.359 -3.399,-0.883 -6.799,-1.764 -10.151,-2.742 -4.428,-1.301 -8.814,-2.697 -13.15,-4.18 l 2.063,37.311 1.594,28.811 c 4.342,1.482 8.733,2.887 13.17,4.18 1.212,0.365 2.455,0.658 3.673,0.998 3.243,0.908 6.489,1.828 9.772,2.645 5.863,1.451 11.807,2.697 17.778,3.84 1.586,0.307 3.183,0.594 4.776,0.881 5.055,0.902 10.144,1.691 15.263,2.371 1.131,0.156 2.246,0.346 3.377,0.49 5.27,0.646 10.562,1.182 15.87,1.613 1.521,0.131 3.04299,0.189 4.56399,0.299 3.929,0.268 7.866,0.504 11.813,0.646 3.762,0.145 7.526,0.281 11.297,0.314 8.603,0.084 17.216,-0.145 25.815,-0.627 0.875,-0.045 1.744,-0.145 2.619,-0.195 7.153,-0.451 14.281,-1.117 21.379,-1.953 1.619,-0.189 3.235,-0.359 4.846,-0.568 7.73,-1.006 15.422,-2.213 23.034,-3.67 1.293,-0.24 2.569,-0.549 3.862,-0.809 6.184,-1.248 12.301,-2.678 18.367,-4.225 2.511,-0.635 5.016,-1.273 7.501,-1.967 6.011,-1.664 11.941,-3.48 17.799,-5.432 1.493,-0.504 3.021,-0.936 4.5,-1.443 2.898,-1.02 5.665,-2.234 8.519,-3.311 5.735,-2.176 11.453,-4.389 16.99,-6.852 3.068,-1.363 6.014,-2.893 9.018,-4.354 5.024,-2.424 10.007,-4.904 14.825,-7.588 5.743,-3.188 11.455,-6.426 16.864,-9.959 l -1.313,-23.67 -2.354,-42.457 c -4.326,2.822 -8.776,5.544 -13.315,8.15 z"
   id="path164"
   inkscape:connector-curvature="0"
   style="fill:url(#SVGID_13_)" />
<radialGradient
   id="SVGID_14_"
   cx="332.56351"
   cy="424.332"
   r="210.18179"
   gradientUnits="userSpaceOnUse"
   gradientTransform="translate(-0.16135026,-121.46474)">
	<stop
   offset="0"
   style="stop-color:#C9E8F7"
   id="stop167" />
	<stop
   offset="0.64"
   style="stop-color:#2AABE3"
   id="stop169" />
	<stop
   offset="1"
   style="stop-color:#30358C"
   id="stop171" />
</radialGradient>
<path
   d="m 301.63565,277.58526 c -1.684,2.193 -3.306,4.408 -4.988,6.602 -4.116,5.375 -8.129,10.795 -12.228,16.182 -4.796,6.307 -9.556,12.641 -14.329,18.963 -30.63599,40.609 -60.95199,81.322 -91.47399,121.984 -1.385,1.834 -2.77,3.67 -4.152,5.557 4.336,1.482 8.723,2.879 13.15,4.18 3.353,0.979 6.752,1.859 10.151,2.742 0.443,0.117 0.881,0.24 1.329,0.359 0.63,0.162 1.246,0.352 1.879,0.502 5.94,1.477 11.957,2.742 18.018,3.904 1.482,0.281 2.974,0.549 4.47,0.816 5.23,0.928 10.492,1.758 15.795,2.463 0.967,0.131 1.923,0.287 2.893,0.404 5.309,0.666 10.645,1.207 15.998,1.645 1.499,0.119 2.998,0.184 4.5,0.289 3.96599,0.273 7.93899,0.502 11.91899,0.658 3.745,0.145 7.493,0.268 11.249,0.307 8.652,0.078 17.319,-0.143 25.969,-0.633 0.663,-0.033 1.329,-0.104 1.998,-0.15 7.337,-0.449 14.644,-1.143 21.925,-1.998 1.597,-0.189 3.186,-0.359 4.776,-0.561 7.725,-1.014 15.399,-2.215 23.007,-3.664 1.293,-0.248 2.561,-0.549 3.85401,-0.811 6.231,-1.252 12.39999,-2.695 18.52199,-4.256 2.436,-0.621 4.863,-1.242 7.284,-1.92 5.994,-1.652 11.905,-3.469 17.754,-5.408 1.555,-0.521 3.146,-0.979 4.692,-1.521 7.02201,-2.447 13.889,-5.145 20.633,-8.012 1.20601,-0.502 2.399,-1.006 3.592,-1.533 3.645,-1.602 7.125,-3.416 10.676,-5.146 2.92,-1.416 5.924,-2.723 8.774,-4.225 1.087,-0.568 2.148,-1.156 3.225,-1.744 6.609,-3.584 13.072,-7.332 19.25,-11.367 -55.356,-41.42 -110.805,-82.832 -166.25299,-124.186 -3.11201,-2.318 -6.21401,-4.648 -9.32401,-6.967 -1.483,-1.17 -3.047,-2.338 -4.534,-3.455 z"
   id="path173"
   inkscape:connector-curvature="0"
   style="fill:url(#SVGID_14_)" />
</svg>