<?xml version="1.0" encoding="UTF-8" standalone="no"?>
<svg width="2064" height="500" xmlns="http://www.w3.org/2000/svg">
 <g>
  <title>RealObjects PDFreactor(R)</title>
  <g id="logo">
   <circle r="199.21254" cy="249.21253" cx="251.53536" fill="#d8dce3"/>
   <g fill="#003399">
    <path d="m252.40199,250.07899l-190.55159,0c1.4436,-67.84799 33.20211,-127.034 95.27561,-164.56719l95.27599,164.56719z"/>
    <path d="m246.96899,249.873l95.27499,-165.02191c58.03601,35.1739 93.414,92.27089 94.88202,164.79489l-190.15701,0.22701l0,0l0,0.00002z"/>
    <path d="m249.606,245.52l95.27599,165.02199c-59.47998,32.67401 -126.61598,34.76401 -190.15698,-0.22699l94.881,-164.795z"/>
   </g>
   <circle stroke="#d8dce3" r="181.88969" cy="249.21253" cx="251.53536" stroke-width="20" fill="none"/>
   <circle stroke="#d8dce3" r="50.2362" cy="249.21253" cx="251.53536" stroke-width="20" fill="#003399"/>
   <g id="pdf">
    <rect height="64.29919" width="149.25192" y="284.5196" x="20" fill="#e41d03"/>
    <g id="pdf-text" fill="#ffffff">
     <path d="m71.0123,307.22699c0,1.98801 -0.344,3.888 -1.032,5.69901c-0.688,1.76599 -1.6984,3.33499 -3.0313,4.70401c-1.29,1.32498 -2.8809,2.38501 -4.7727,3.17999c-1.849,0.75101 -3.9558,1.12701 -6.3207,1.12701l-8.836,0l0,17.75699l-8.965,0l0,-47.17599l17.801,0c2.3649,0 4.4717,0.39798 6.3207,1.19299c1.8918,0.75101 3.4827,1.811 4.7727,3.17999c1.3329,1.32501 2.3433,2.89301 3.0313,4.70401c0.688,1.767 1.0319,3.64499 1.032,5.63199m-8.965,0c0,-1.94299 -0.602,-3.51099 -1.8059,-4.70398c-1.161,-1.19302 -2.7734,-1.789 -4.8373,-1.789l-8.3845,0l0,12.91998l8.3845,0c2.0639,0 3.6763,-0.57401 4.8373,-1.72198c1.2039,-1.19299 1.8059,-2.76102 1.8059,-4.70502"/>
     <path d="m111.961,321.20801c0,1.72299 -0.129,3.401 -0.386,5.035c-0.258,1.63498 -0.71,3.203 -1.355,4.70499c-0.645,1.50201 -1.612,2.91501 -2.902,4.23999c-1.505,1.54602 -3.311,2.69501 -5.418,3.44601c-2.0639,0.70599 -4.2997,1.06 -6.7076,1.06l-16.5756,0l0,-47.17599l16.5756,0c2.40791,0 4.6437,0.375 6.7076,1.12601c2.107,0.707 3.913,1.83398 5.418,3.37997c1.29,1.32501 2.257,2.716 2.902,4.17401c0.645,1.45801 1.097,2.98099 1.355,4.57199c0.257,1.59 0.386,3.246 0.386,4.96902l0,10.46899m-8.965,-5.30099c0,-1.767 -0.021,-3.29102 -0.064,-4.57202c-0.043,-1.32498 -0.129,-2.47299 -0.258,-3.44498c-0.12901,-0.97202 -0.32201,-1.789 -0.58,-2.45203c-0.258,-0.66199 -0.60201,-1.259 -1.03201,-1.789c-0.77399,-0.97098 -1.6988,-1.69998 -2.7738,-2.18597c-1.0749,-0.48602 -2.3864,-0.729 -3.9342,-0.729l-6.77219,0l0,30.74399l6.77219,0c1.54781,0 2.85931,-0.24301 3.9342,-0.729c1.075,-0.48599 1.9998,-1.215 2.7738,-2.18698c0.817,-1.06 1.333,-2.539 1.548,-4.43903c0.257,-1.89899 0.386,-4.638 0.386,-8.21597"/>
     <path d="m130.034,300.73401l0,11.595l18.123,0l0,8.216l-18.123,0l0,19.14899l-8.965,0l0,-47.17599l30.248,0l0,8.216l-21.283,0"/>
    </g>
   </g>
  </g>
  <g id="text">
   <g id="realobjects" fill="#003399">
    <path d="m691.78369,162.86882l-14.87909,0l-14.87915,-30.15324l-30.67987,0l0,30.15324l-13.43073,0l0,-52.01103c0,-5.35464 1.62396,-10.09489 4.87195,-14.22074c4.03796,-5.09131 9.69995,-7.63699 16.98584,-7.63705l30.15326,0c5.35468,0.00005 10.09485,1.62403 14.2207,4.87193c5.09131,4.03802 7.63702,9.69999 7.63708,16.98586c-0.00006,10.88506 -5.09143,17.81985 -15.27411,20.80443l15.27411,31.2066m-13.43073,-52.01103c0,-5.61802 -2.80908,-8.42705 -8.42706,-8.4271l-30.15326,0c-5.6181,0.00005 -8.42712,2.80908 -8.42706,8.4271l0,8.42711l38.58032,0c5.61798,0.00005 8.42706,-2.809 8.42706,-8.42711"/>
    <path d="m730.68085,102.43071l52.01105,0l0,-13.43068l-52.1427,0c-5.35474,0.00005 -10.09497,1.62402 -14.2207,4.87192c-5.09137,4.03803 -7.63708,9.7 -7.63708,16.98587c0,6.14482 1.88727,11.19229 5.66193,15.14245c-3.77466,3.86245 -5.66193,8.86605 -5.66193,15.0108c0,7.28592 2.54572,12.94789 7.63708,16.98587c4.12573,3.24794 8.86597,4.87192 14.2207,4.87192l52.1427,0l0,-13.43071l-52.1427,0c-5.6181,0.00003 -8.42712,-2.80901 -8.42712,-8.42708c0,-5.53026 2.80902,-8.29543 8.42712,-8.29546l37.00024,0l0,-13.43068l-37.00024,0c-5.6181,0.00005 -8.42712,-2.809 -8.42712,-8.42711c0,-5.61803 2.85297,-8.42705 8.55878,-8.42711"/>
    <path d="m872.67834,162.86882l-13.43066,0l0,-30.15324l-47.13916,0l0,30.15324l-13.43066,0l0,-52.01103c0,-5.35464 1.66785,-10.09489 5.0036,-14.22074c4.0379,-5.09131 9.65601,-7.63699 16.85419,-7.63705l30.28491,0c5.35468,0.00005 10.09491,1.62403 14.2207,4.87193c5.09137,4.03802 7.63702,9.69999 7.63708,16.98586l0,52.01103m-13.43066,-43.58392l0,-8.42711c-0.00006,-5.61802 -2.80914,-8.42705 -8.42712,-8.4271l-30.28491,0c-5.6181,0.00005 -8.42712,2.80908 -8.42712,8.4271l0,8.42711l47.13916,0"/>
    <path d="m889.59839,89l0,52.01103c0,7.28595 2.54572,12.94789 7.63708,16.98587c4.12579,3.24794 8.86597,4.87192 14.2207,4.87192l30.28491,0l0,-13.43068l-30.28491,0c-5.61804,0 -8.42706,-2.80904 -8.42706,-8.42711l0,-52.01103l-13.43073,0"/>
    <path d="m1028.40698,141.01103c-0.00012,5.35474 -1.62402,10.09497 -4.87195,14.22073c-4.03802,5.09137 -9.70001,7.63705 -16.98584,7.63705l-30.15332,0c-5.35474,0 -10.09491,-1.62398 -14.2207,-4.87192c-5.09137,-4.03798 -7.63708,-9.69992 -7.63708,-16.98587l0,-30.15324c0,-5.35464 1.62402,-10.09489 4.87195,-14.22074c4.03796,-5.09128 9.69989,-7.63697 16.98584,-7.63705l30.15332,0c5.35468,0.00008 10.09491,1.62405 14.22076,4.87192c5.09125,4.03806 7.6369,9.7 7.63702,16.98587l0,30.15324m-13.43073,0l0,-30.15324c-0.00012,-5.618 -2.80908,-8.42705 -8.42706,-8.4271l-30.15332,0c-5.6181,0.00005 -8.42706,2.8091 -8.42706,8.4271l0,30.15324c0,5.61807 2.80896,8.42711 8.42706,8.42711l30.15332,0c5.61798,0 8.42694,-2.80904 8.42706,-8.42711"/>
    <path d="m1118.54968,141.01103c0,7.28595 -2.54578,12.94789 -7.63708,16.98587c-4.12573,3.24794 -8.86597,4.87192 -14.2207,4.87192l-52.01099,0l0,-73.86882l52.01099,0c5.35474,0.00008 10.09497,1.62405 14.2207,4.87192c5.09131,4.03806 7.63708,9.7 7.63708,16.9859c0,6.14479 -1.88721,11.19227 -5.66199,15.14245c3.77478,3.86245 5.66199,8.86604 5.66199,15.01077m-13.43066,-30.15321c0,-5.61803 -2.80908,-8.42708 -8.42712,-8.42711l-38.58032,0l0,16.85424l38.58032,0c5.61804,0.00003 8.42712,-2.80897 8.42712,-8.42708m0,30.15322c0,-5.53027 -2.80908,-8.29539 -8.42712,-8.29543l-38.58032,0l0,16.72247l38.58032,0c5.61804,0 8.42712,-2.80904 8.42712,-8.42705"/>
    <path d="m1134.67969,89l0,13.43069l38.58032,0l0,38.58035c0,5.61807 -2.80896,8.42711 -8.42712,8.42711l-30.1532,0l0,13.43068l30.1532,0c5.35486,0 10.09497,-1.62398 14.2207,-4.87192c5.09143,-4.03798 7.63721,-9.69992 7.63721,-16.98587l0,-52.01103l-52.01111,0"/>
    <path d="m1225.99939,102.43071l52.01111,0l0,-13.43068l-52.14282,0c-5.35461,0.00005 -10.09485,1.62402 -14.2207,4.87192c-5.09131,4.03803 -7.63696,9.7 -7.63696,16.98587c0,6.14482 1.88721,11.19229 5.66199,15.14245c-3.77478,3.86245 -5.66199,8.86605 -5.66199,15.0108c0,7.28592 2.54565,12.94789 7.63696,16.98587c4.12585,3.24794 8.86609,4.87192 14.2207,4.87192l52.14282,0l0,-13.43071l-52.14282,0c-5.61792,0.00003 -8.427,-2.80901 -8.427,-8.42708c0,-5.53026 2.80908,-8.29543 8.427,-8.29546l37.00024,0l0,-13.43068l-37.00024,0c-5.61792,0.00005 -8.427,-2.809 -8.427,-8.42711c0,-5.61803 2.85291,-8.42705 8.55872,-8.42711"/>
    <path d="m1367.99695,162.86882l-52.01099,0c-5.35474,0 -10.09509,-1.62398 -14.22083,-4.87192c-5.09131,-4.03798 -7.63708,-9.69995 -7.63708,-16.98587l0,-30.15324c0,-5.35464 1.62402,-10.09489 4.87195,-14.22074c4.03796,-5.09131 9.69995,-7.63699 16.98596,-7.63705l52.01099,0l0,13.43069l-52.01099,0c-5.61816,0.00005 -8.42712,2.80908 -8.42712,8.4271l0,30.15324c0,5.61807 2.80896,8.42711 8.42712,8.42708l52.01099,0l0,13.43071"/>
    <path d="m1450.49036,102.43071l-26.07129,0l0,60.43814l-13.43066,0l0,-60.43814l-26.07153,0l0,-13.43068l65.57349,0l0,13.43068"/>
    <path d="m1536.57813,141.01103c-0.00012,7.28595 -2.54565,12.94789 -7.63708,16.98587c-4.12585,3.24794 -8.82214,4.87192 -14.08899,4.87192l-52.1427,0l0,-13.43068l52.01099,0c5.61792,0 8.427,-2.80904 8.42712,-8.42711c-0.00012,-5.53026 -2.76514,-8.29539 -8.29541,-8.29543l-30.28491,0c-5.35474,0.00003 -10.09497,-1.66783 -14.2207,-5.00359c-5.09143,-4.03796 -7.63708,-9.65601 -7.63708,-16.85419c0,-7.2859 2.54565,-12.94784 7.63708,-16.98589c4.12573,-3.24789 8.86597,-4.87186 14.2207,-4.87193l52.01099,0l0,13.43069l-52.01099,0c-5.61816,0.00005 -8.42712,2.8091 -8.42712,8.4271c0,5.61814 2.80896,8.42716 8.42712,8.42711l30.28491,0c5.26685,0.00005 9.96313,1.624 14.08899,4.87186c5.09143,4.03809 7.63696,9.65614 7.63708,16.85427"/>
   </g>
   <g id="pdfreactor" fill="#000000">
    <g>
     <path d="m752.00983,288.63278c-0.00024,7.87347 -1.39984,15.39685 -4.19904,22.57016c-2.79962,6.9986 -6.91119,13.20981 -12.33496,18.63351c-5.24908,5.24899 -11.72272,9.44806 -19.42084,12.59732c-7.5235,2.97446 -16.09662,4.46158 -25.71936,4.46155l-35.95483,0l0,70.33493l-36.47968,0l0,-186.85995l72.43451,0c9.62274,0.0002 18.19586,1.57486 25.71936,4.72398c7.69812,2.97455 14.17175,7.17366 19.42084,12.59729c5.42377,5.24907 9.53534,11.46022 12.33496,18.6335c2.79919,6.99866 4.19879,14.43454 4.19904,22.30771m-36.47968,0c-0.00018,-7.69818 -2.44965,-13.90936 -7.34839,-18.63348c-4.72424,-4.72382 -11.28534,-7.08585 -19.68335,-7.08597l-34.11761,0l0,51.17651l34.11761,0c8.39801,0.00012 14.95911,-2.27435 19.68335,-6.82352c4.89874,-4.72388 7.34821,-10.93503 7.34839,-18.63354"/>
     <path d="m918.63702,344.00839c-0.00024,6.82364 -0.52509,13.47223 -1.57471,19.9458c-1.04987,6.47366 -2.88708,12.68475 -5.51141,18.63348c-2.62457,5.94876 -6.56128,11.54752 -11.80994,16.79642c-6.12384,6.12366 -13.47229,10.67267 -22.04517,13.64703c-8.3985,2.79941 -17.4964,4.19913 -27.29407,4.19913l-67.44812,0l0,-186.85992l67.44812,0c9.79767,0.00017 18.89557,1.48737 27.29407,4.46153c8.57288,2.79956 15.92133,7.26112 22.04517,13.3846c5.24866,5.24905 9.18536,10.76038 11.80994,16.53397c2.62433,5.7739 4.46155,11.81012 5.51141,18.10864c1.04962,6.29877 1.57446,12.85986 1.57471,19.68326l0,41.46606m-36.47968,-20.99545c-0.00024,-6.99838 -0.08746,-13.03461 -0.26251,-18.10864c-0.17487,-5.24875 -0.52509,-9.79773 -1.04968,-13.64703c-0.52502,-3.84906 -1.31238,-7.08585 -2.362,-9.71042c-1.05011,-2.6243 -2.44971,-4.9863 -4.19922,-7.086c-3.14941,-3.849 -6.91101,-6.7359 -11.28491,-8.66064c-4.37433,-1.92441 -9.71063,-2.88672 -16.00916,-2.88687l-27.55658,0l0,121.77393l27.55658,0c6.29852,0 11.63483,-0.96228 16.00916,-2.88684c4.3739,-1.92453 8.1355,-4.81134 11.28491,-8.66074c3.32422,-4.19904 5.42371,-10.06027 6.29871,-17.58371c1.04968,-7.52332 1.57446,-18.37103 1.57471,-32.54291"/>
     <path d="m992.17432,262.91333l0,45.92764l73.7467,0l0,32.543l-73.7467,0l0,75.84628l-36.47968,0l0,-186.85992l123.08612,0l0,32.543l-86.60645,0"/>
    </g>
    <g>
     <path d="m1184.93982,312.15182c-3.53198,-3.53168 -6.88721,-6.00397 -10.06592,-7.41681c-3.17834,-1.41266 -7.32849,-2.11899 -12.44971,-2.11917c-4.76794,0.00018 -9.09424,0.88312 -12.97937,2.6489c-3.88501,1.76605 -7.15198,4.23831 -9.8009,7.4169c-2.64893,3.17877 -4.76794,6.88721 -6.3573,11.12531c-1.41284,4.23828 -2.11926,8.82965 -2.11926,13.7742l0,79.99612l-19.07178,0l0,-130.32489l19.07178,0l0,15.89325c3.53198,-5.47421 8.5647,-9.7124 15.09875,-12.7146c6.71057,-3.1785 13.86243,-4.76785 21.45593,-4.76794c6.18079,0.00009 11.74341,0.88309 16.68799,2.6489c5.12109,1.76599 9.97742,4.94464 14.5686,9.53595l-14.03882,14.30389"/>
     <path d="m1232.97021,357.44769c0,14.30402 3.26672,25.42929 9.8009,33.37589c6.53369,7.77011 16.06958,11.65506 28.60791,11.65506c7.59338,0 13.86218,-1.14783 18.80713,-3.44348c5.12097,-2.47232 10.24194,-6.26901 15.36353,-11.39023l12.97937,11.39023c-3.35547,3.35526 -6.71057,6.26898 -10.06567,8.74124c-3.17896,2.47229 -6.62244,4.5914 -10.33081,6.35733c-3.70862,1.58932 -7.8584,2.82547 -12.44958,3.7084c-4.41504,0.883 -9.35962,1.32449 -14.83362,1.32449c-8.65332,0 -16.51172,-1.32449 -23.5752,-3.97333c-6.88721,-2.6489 -12.80298,-6.71051 -17.74744,-12.18491c-4.9447,-5.47427 -8.82959,-12.36136 -11.65515,-20.66122c-2.64868,-8.47638 -3.97327,-18.45386 -3.97327,-29.93237c0,-21.19095 4.76794,-37.61395 14.30383,-49.26917c9.53589,-11.65497 22.60376,-17.48245 39.20349,-17.4826c16.95276,0.00015 30.10876,5.65103 39.46851,16.95282c9.35913,11.30206 14.0387,26.66547 14.03882,46.09052l0,8.74133l-87.94275,0m68.87073,-14.30392c-0.17639,-2.64883 -0.35315,-4.94452 -0.52966,-6.88712c-0.17639,-1.94241 -0.44153,-3.70831 -0.79456,-5.29773c-0.17664,-1.58929 -0.53003,-3.0903 -1.05945,-4.50308c-0.35339,-1.58932 -0.88318,-3.26691 -1.58948,-5.03293c-2.47241,-6.004 -6.4458,-10.77197 -11.9198,-14.30396c-5.47473,-3.53168 -11.65552,-5.29761 -18.54236,-5.29779c-6.88708,0.00018 -13.06799,1.76611 -18.54199,5.29779c-5.47461,3.53198 -9.448,8.29996 -11.92004,14.30396c-1.41309,3.53192 -2.38428,6.71057 -2.9137,9.53601c-0.53003,2.82553 -0.88318,6.88718 -1.05969,12.18484l68.87073,0"/>
     <path d="m1433.15833,417.57727l0,-12.44974c-5.29773,5.29776 -10.77209,9.0062 -16.4231,11.12531c-5.47437,1.9425 -12.53796,2.91379 -21.19104,2.91379c-9.0061,0 -16.42297,-0.88297 -22.25037,-2.64893c-5.651,-1.94254 -10.50732,-5.03287 -14.56909,-9.27106c-3.17871,-3.17865 -5.651,-7.06369 -7.41687,-11.65506c-1.58923,-4.76794 -2.38391,-9.71255 -2.38391,-14.83371c0,-11.47849 3.79663,-20.57297 11.39026,-27.28354c7.77002,-6.88699 18.9834,-10.33051 33.64063,-10.33057l39.20349,0l0,-12.44974c0,-9.53592 -2.56042,-16.68784 -7.68176,-21.45596c-5.12109,-4.76788 -13.68591,-7.15186 -25.69421,-7.15195c-8.4762,0.00009 -15.09863,1.14798 -19.86646,3.44357c-4.76807,2.11917 -9.09436,5.91577 -12.97949,11.39014l-12.97961,-11.91992c5.82739,-7.59338 12.27319,-12.71457 19.33667,-15.36356c7.24036,-2.64877 16.15833,-3.97333 26.75378,-3.97333c17.65918,0 30.72705,3.70859 39.20349,11.12534c8.65295,7.24039 12.97961,18.01248 12.97961,32.31628l0,88.47263l-19.07202,0m0,-60.12958l-36.55457,0c-19.42505,0.00009 -29.1377,7.68173 -29.1377,23.04526c0,7.59351 2.38403,13.24445 7.15198,16.95285c4.76794,3.53183 12.36145,5.29773 22.78027,5.29773c5.651,0 10.86047,-0.44141 15.62854,-1.32443c4.94458,-0.88297 9.44775,-3.35526 13.50928,-7.4169c4.41492,-4.23813 6.62219,-11.74329 6.62219,-22.51544l0,-14.03906"/>
     <path d="m1587.92969,399.82974c-6.71057,7.24039 -13.33276,12.27319 -19.86658,15.09866c-6.35742,2.82547 -14.03931,4.23822 -23.04517,4.23822c-8.30005,0 -15.98181,-1.32449 -23.04517,-3.97333c-6.88745,-2.8255 -12.97986,-6.97537 -18.27747,-12.44977c-5.12122,-5.65088 -9.18286,-12.62625 -12.18481,-20.92615c-2.82544,-8.47635 -4.23816,-18.27722 -4.23816,-29.40259c0,-11.12518 1.41272,-20.83786 4.23816,-29.13766c3.00195,-8.29968 7.0636,-15.18683 12.18481,-20.66129c5.29761,-5.65079 11.39001,-9.88898 18.27747,-12.71463c7.06335,-2.82532 14.74512,-4.23804 23.04517,-4.23819c9.00586,0.00015 16.68774,1.41287 23.04517,4.23819c6.53381,2.82565 13.15601,7.85852 19.86658,15.09869l-12.97961,12.18478c-4.9447,-5.47421 -9.62427,-9.27106 -14.03882,-11.3902c-4.41516,-2.11908 -9.71289,-3.17862 -15.89331,-3.17865c-6.35742,0.00003 -12.09668,1.2363 -17.21777,3.70853c-5.12122,2.47238 -9.44788,6.18079 -12.97949,11.12521c-3.00232,4.23822 -5.20959,9.09442 -6.62219,14.56882c-1.23621,5.29788 -1.85425,12.09665 -1.85425,20.39639c0,8.29996 0.61804,15.18692 1.85425,20.66132c1.4126,5.29776 3.61987,10.06577 6.62219,14.30389c3.53162,4.94458 7.85828,8.65311 12.97949,11.12512c5.12109,2.47232 10.86035,3.70862 17.21777,3.70862c6.18042,0 11.47815,-1.05957 15.89331,-3.17865c4.41455,-2.29584 9.09412,-6.18063 14.03882,-11.65509l12.97961,12.44974"/>
     <path d="m1660.83606,417.57727c-5.651,0 -10.59546,-0.88297 -14.83362,-2.64886c-4.06165,-1.94254 -7.50525,-4.50311 -10.33081,-7.68176c-2.6488,-3.17865 -4.67957,-6.88705 -6.09216,-11.12527c-1.41284,-4.23819 -2.11926,-8.7413 -2.11926,-13.50931l0,-79.99622l-16.4231,0l0,-14.56882l16.4231,0l0,-40.79277l19.07202,0l0,40.79277l27.81311,0l0,14.56882l-27.81311,0l0,79.46646c0,6.00415 1.4126,10.68384 4.23792,14.03906c2.82568,3.35526 7.32874,5.0329 13.5094,5.03284l10.0658,0l0,16.42307l-13.50928,0"/>
     <path d="m1809.76074,352.41479c0,10.06583 -1.0592,19.60184 -3.17859,28.60797c-1.94238,8.82959 -6.18054,16.59964 -12.71472,23.31012c-4.59131,4.5914 -9.97729,8.21152 -16.15796,10.86041c-6.18091,2.6489 -13.24451,3.97333 -21.19104,3.97333c-7.9469,0 -15.0105,-1.32443 -21.19116,-3.97333c-6.18054,-2.6489 -11.56665,-6.26901 -16.1582,-10.86041c-3.35522,-3.35526 -6.09253,-6.97534 -8.21155,-10.86041c-1.94226,-4.06158 -3.53174,-8.21146 -4.76782,-12.44971c-1.05957,-4.41479 -1.85437,-9.00613 -2.38403,-13.7742c-0.35315,-4.76794 -0.52991,-9.71246 -0.52991,-14.83377c0,-4.94443 0.17676,-9.80075 0.52991,-14.56879c0.52966,-4.94446 1.32446,-9.53592 2.38403,-13.77417c1.23608,-4.4147 2.82556,-8.56458 4.76782,-12.44974c2.11902,-4.06149 4.85632,-7.76993 8.21155,-11.12537c4.59155,-4.59137 9.97766,-8.21158 16.1582,-10.86038c6.18066,-2.64877 13.24426,-3.97333 21.19116,-3.97333c7.94653,0 15.01013,1.32437 21.19104,3.97333c6.18066,2.64899 11.56665,6.26917 16.15796,10.86038c6.53418,6.71051 10.77234,14.569 12.71472,23.57492c2.11938,8.82971 3.17859,18.27737 3.17859,28.34314m-19.07202,0c0,-3.70828 -0.08813,-7.41687 -0.26465,-11.12524c-0.17676,-3.70834 -0.61816,-7.32846 -1.32458,-10.86038c-0.70618,-3.53183 -1.76587,-6.79877 -3.17847,-9.80087c-1.41284,-3.17862 -3.26697,-6.00403 -5.56274,-8.47647c-6.3573,-6.35715 -14.30396,-9.5358 -23.83984,-9.53598c-9.3595,0.00018 -17.21777,3.17883 -23.5752,9.53598c-2.47229,2.47244 -4.41479,5.29785 -5.82739,8.47647c-1.23621,3.00211 -2.2959,6.26904 -3.17871,9.80087c-0.70642,3.53192 -1.14783,7.15204 -1.32446,10.86038c-0.17676,3.70853 -0.26489,7.41696 -0.26489,11.12524c0,3.70856 0.08813,7.41687 0.26489,11.12537c0.17664,3.70847 0.61804,7.32858 1.32446,10.86038c0.88281,3.53189 1.9425,6.88715 3.17871,10.06555c1.4126,3.17871 3.3551,5.91589 5.82739,8.21167c6.35742,6.35733 14.2157,9.53598 23.5752,9.53598c9.53589,0 17.48254,-3.17865 23.83984,-9.53598c2.29578,-2.29559 4.1499,-5.03296 5.56274,-8.21167c1.4126,-3.17859 2.47229,-6.53366 3.17847,-10.06555c0.70642,-3.5318 1.14783,-7.15201 1.32458,-10.86038c0.17651,-3.7085 0.26465,-7.41681 0.26465,-11.12537"/>
     <path d="m1923.21167,312.15182c-3.53223,-3.53168 -6.88733,-6.00397 -10.06567,-7.41681c-3.17908,-1.41266 -7.32886,-2.11899 -12.44983,-2.11917c-4.76807,0.00018 -9.0946,0.88312 -12.97937,2.6489c-3.8855,1.76605 -7.15222,4.23831 -9.80103,7.4169c-2.64917,3.17877 -4.76807,6.88721 -6.35754,11.12531c-1.41284,4.23828 -2.11926,8.82965 -2.11865,13.7742l0,79.99612l-19.07227,0l0,-130.32489l19.07227,0l0,15.89325c3.53162,-5.47421 8.56421,-9.7124 15.09851,-12.7146c6.71045,-3.1785 13.8623,-4.76785 21.45569,-4.76794c6.18079,0.00009 11.74341,0.88309 16.68799,2.6489c5.12097,1.76599 9.97754,4.94464 14.56909,9.53595l-14.03918,14.30389"/>
     <path d="m2018.71729,249.27716c0,5.23337 -1.01196,10.15277 -3.03528,14.75803c-1.95386,4.60544 -4.64026,8.61765 -8.05933,12.03677c-3.41931,3.41913 -7.43152,6.14047 -12.03674,8.16403c-4.60547,1.9538 -9.52478,2.93066 -14.75806,2.93066c-5.23352,0 -10.15295,-0.97687 -14.75806,-2.93066c-4.60547,-2.02356 -8.61768,-4.7449 -12.03674,-8.16403c-3.41931,-3.41913 -6.1405,-7.43134 -8.16418,-12.03677c-1.95386,-4.60526 -2.93066,-9.52466 -2.93066,-14.75803c0,-5.23331 0.97681,-10.15265 2.93066,-14.75809c2.02368,-4.60527 4.74487,-8.61751 8.16418,-12.03667c3.41907,-3.41911 7.43127,-6.10556 12.03674,-8.0594c4.6051,-2.0235 9.52454,-3.03528 14.75806,-3.03537c5.23315,0.00009 10.15259,1.01187 14.75806,3.03537c4.60522,1.95384 8.61743,4.64029 12.03674,8.0594c3.41907,3.41916 6.10547,7.4314 8.05933,12.03667c2.02332,4.60544 3.03528,9.52478 3.03528,14.75809m-5.96594,0c0,-4.46574 -0.8374,-8.65245 -2.51221,-12.56006c-1.67456,-3.90752 -3.97729,-7.32661 -6.90784,-10.25739c-2.86096,-2.93063 -6.24524,-5.23329 -10.15271,-6.90805c-3.83789,-1.74435 -7.95471,-2.61659 -12.35071,-2.61665c-4.39612,0.00006 -8.5481,0.8723 -12.45544,2.61665c-3.83801,1.67476 -7.18726,3.97742 -10.0481,6.90805c-2.86096,2.93073 -5.12866,6.34987 -6.80334,10.25739c-1.6748,3.90761 -2.51208,8.09431 -2.51208,12.56006c0,4.46584 0.83728,8.6525 2.51208,12.56006c1.67468,3.90759 3.94238,7.32669 6.80334,10.25735c2.86084,2.93073 6.21008,5.26828 10.0481,7.0127c3.90735,1.67471 8.05933,2.51205 12.45544,2.51205c4.396,0 8.51282,-0.83734 12.35071,-2.51205c3.90747,-1.74442 7.29175,-4.08197 10.15271,-7.0127c2.93054,-2.93066 5.23328,-6.34976 6.90784,-10.25735c1.6748,-3.90756 2.51221,-8.09422 2.51221,-12.56006m-22.71277,20.72409l-9.52478,-16.95605l-6.28003,0l0,16.95605l-5.75671,0l0,-41.55284l14.13013,0c1.81409,0.00006 3.48877,0.31406 5.02393,0.94197c1.60498,0.6281 3.00037,1.50029 4.18665,2.61671c1.1864,1.1165 2.1283,2.44226 2.82605,3.97734c0.69763,1.53516 1.04663,3.17493 1.04688,4.91936c-0.00024,3.0703 -0.83752,5.54741 -2.51208,7.43138c-1.67493,1.884 -3.8031,3.20981 -6.38477,3.97736l9.94336,17.68872l-6.69861,0m-0.20935,-29.09746c-0.00012,-2.09329 -0.73279,-3.83778 -2.19812,-5.23337c-1.46545,-1.39552 -3.34924,-2.09329 -5.65198,-2.09335l-7.74536,0l0,14.54872l7.74536,0c2.30273,0.00009 4.18652,-0.66284 5.65198,-1.98865c1.46533,-1.39549 2.198,-3.13995 2.19812,-5.23335"/>
    </g>
   </g>
  </g>
 </g>
</svg>